<svg xmlns="http://www.w3.org/2000/svg" viewBox="0 0 24 24">
  <defs>
    <linearGradient id="g" x1="0" y1="0" x2="1" y2="1">
      <stop offset="0%" stop-color="#7c5cff"/>
      <stop offset="100%" stop-color="#ff7a90"/>
    </linearGradient>
  </defs>
  <rect width="24" height="24" rx="6" fill="url(#g)"/>
  <g fill="#fff">
    <path d="M12 14a3 3 0 0 0 3-3V6a3 3 0 0 0-6 0v5a3 3 0 0 0 3 3z"/>
    <path d="M19 11a1 1 0 1 0-2 0 5 5 0 0 1-10 0 1 1 0 1 0-2 0 7 7 0 0 0 6 6.92V21a1 1 0 1 0 2 0v-3.08A7 7 0 0 0 19 11z"/>
  </g>
</svg>
